<?xml version="1.0"?>
<svg xmlns="http://www.w3.org/2000/svg" version="1.2" baseProfile="tiny" width="800" height="387" viewBox="0 0 800 387" stroke-linecap="round" stroke-linejoin="round">
<g id="ne_10m_land">
<path d="M 400 344.88 405.59 343.55 420.32 342.24 436.79 342.39 442.76 343.58 451.7 343.35 458.62 343.84 472.82 341.43 488.03 340.64 488.35 338.96 495 337.35 502.45 336.35 514.76 332.77 523.27 332.75 525.47 334.78 538.8 336.37 541.09 336.02 554.46 336.82 555.42 338.22 552.22 344.22 572.55 339.63 575.41 337.45 594.99 334.4 603.84 333.79 608.36 334.31 630.33 332.64 639.7 334.07 650.93 332.17 663.83 335.82 679.07 333.37 686.4 335.13 689.78 333.02 701.82 333.23 718.03 334.56 723.74 336.21 725.22 337.79 734.93 338.02 754.12 340.45 759.08 343.6 764.07 342.64 778.64 345.32 775.1 348.5 764.84 350.26 760.41 352.09 763.99 359.79 755.52 361.88 756.91 367.16 771.84 370.94 799 373.37 799 373.73 799 374.84 799 375.94 799 377.05 799 378.15 799 379.26 799 380.36 799 381.47 799 382.57 799 383.68 799 384.78 799 385.89 797.89 385.89 796.79 385.89 795.68 385.89 794.57 385.89 793.47 385.89 792.36 385.89 791.25 385.89 790.15 385.89 789.04 385.89 787.93 385.89 786.83 385.89 785.72 385.89 784.61 385.89 783.5 385.89 782.4 385.89 781.29 385.89 780.18 385.89 779.08 385.89 777.97 385.89 776.86 385.89 775.76 385.89 774.65 385.89 773.54 385.89 772.44 385.89 771.33 385.89 770.22 385.89 769.12 385.89 768.01 385.89 766.9 385.89 765.8 385.89 764.69 385.89 763.58 385.89 762.48 385.89 761.37 385.89 760.26 385.89 759.16 385.89 758.05 385.89 756.94 385.89 755.83 385.89 754.73 385.89 753.62 385.89 752.51 385.89 751.41 385.89 750.3 385.89 749.19 385.89 748.09 385.89 746.98 385.89 745.87 385.89 744.77 385.89 743.66 385.89 742.55 385.89 741.45 385.89 740.34 385.89 739.23 385.89 738.13 385.89 737.02 385.89 735.91 385.89 734.81 385.89 733.7 385.89 732.59 385.89 731.49 385.89 730.38 385.89 729.27 385.89 728.17 385.89 727.06 385.89 725.95 385.89 724.84 385.89 723.74 385.89 722.63 385.89 721.52 385.89 720.42 385.89 719.31 385.89 718.2 385.89 717.1 385.89 715.99 385.89 714.88 385.89 713.78 385.89 712.67 385.89 711.56 385.89 710.46 385.89 709.35 385.89 708.24 385.89 707.14 385.89 706.03 385.89 704.92 385.89 703.82 385.89 702.71 385.89 701.6 385.89 700.5 385.89 699.39 385.89 698.28 385.89 697.17 385.89 696.07 385.89 694.96 385.89 693.85 385.89 692.75 385.89 691.64 385.89 690.53 385.89 689.43 385.89 688.32 385.89 687.21 385.89 686.11 385.89 685 385.89 683.89 385.89 682.79 385.89 681.68 385.89 680.57 385.89 679.47 385.89 678.36 385.89 677.25 385.89 676.15 385.89 675.04 385.89 673.93 385.89 672.83 385.89 671.72 385.89 670.61 385.89 669.5 385.89 668.4 385.89 667.29 385.89 666.18 385.89 665.08 385.89 663.97 385.89 662.86 385.89 661.76 385.89 660.65 385.89 659.54 385.89 658.44 385.89 657.33 385.89 656.22 385.89 655.12 385.89 654.01 385.89 652.9 385.89 651.8 385.89 650.69 385.89 649.58 385.89 648.48 385.89 647.37 385.89 646.26 385.89 645.16 385.89 644.05 385.89 642.94 385.89 641.83 385.89 640.73 385.89 639.62 385.89 638.51 385.89 637.41 385.89 636.3 385.89 635.19 385.89 634.09 385.89 632.98 385.89 631.87 385.89 630.77 385.89 629.66 385.89 628.55 385.89 627.45 385.89 626.34 385.89 625.23 385.89 624.13 385.89 623.02 385.89 621.91 385.89 620.81 385.89 619.7 385.89 618.59 385.89 617.49 385.89 616.38 385.89 615.27 385.89 614.17 385.89 613.06 385.89 611.95 385.89 610.84 385.89 609.74 385.89 608.63 385.89 607.52 385.89 606.42 385.89 605.31 385.89 604.2 385.89 603.1 385.89 601.99 385.89 600.88 385.89 599.78 385.89 598.67 385.89 597.56 385.89 596.46 385.89 595.35 385.89 594.24 385.89 593.14 385.89 592.03 385.89 590.92 385.89 589.82 385.89 588.71 385.89 587.6 385.89 586.5 385.89 585.39 385.89 584.28 385.89 583.17 385.89 582.07 385.89 580.96 385.89 579.85 385.89 578.75 385.89 577.64 385.89 576.53 385.89 575.43 385.89 574.32 385.89 573.21 385.89 572.11 385.89 571 385.89 569.89 385.89 568.79 385.89 567.68 385.89 566.57 385.89 565.47 385.89 564.36 385.89 563.25 385.89 562.15 385.89 561.04 385.89 559.93 385.89 558.83 385.89 557.72 385.89 556.61 385.89 555.5 385.89 554.4 385.89 553.29 385.89 552.18 385.89 551.08 385.89 549.97 385.89 548.86 385.89 547.76 385.89 546.65 385.89 545.54 385.89 544.44 385.89 543.33 385.89 542.22 385.89 541.12 385.89 540.01 385.89 538.9 385.89 537.8 385.89 536.69 385.89 536.66 385.89 535.58 385.89 534.48 385.89 533.37 385.89 532.26 385.89 531.16 385.89 530.05 385.89 528.94 385.89 527.83 385.89 526.73 385.89 525.62 385.89 524.51 385.89 523.41 385.89 522.3 385.89 521.19 385.89 520.09 385.89 518.98 385.89 517.87 385.89 516.77 385.89 515.66 385.89 514.55 385.89 513.45 385.89 512.34 385.89 511.23 385.89 510.13 385.89 509.02 385.89 507.91 385.89 506.81 385.89 505.7 385.89 504.59 385.89 503.49 385.89 502.38 385.89 501.27 385.89 500.17 385.89 499.06 385.89 497.95 385.89 496.84 385.89 495.74 385.89 494.63 385.89 493.52 385.89 492.42 385.89 491.31 385.89 490.2 385.89 489.1 385.89 487.99 385.89 486.88 385.89 485.78 385.89 484.67 385.89 483.56 385.89 482.46 385.89 481.35 385.89 480.24 385.89 479.14 385.89 478.03 385.89 476.92 385.89 475.82 385.89 474.71 385.89 473.6 385.89 472.5 385.89 471.39 385.89 470.28 385.89 469.17 385.89 468.07 385.89 466.96 385.89 465.85 385.89 464.75 385.89 463.64 385.89 462.53 385.89 461.43 385.89 460.32 385.89 459.21 385.89 458.11 385.89 457 385.89 455.89 385.89 454.79 385.89 453.68 385.89 452.57 385.89 451.47 385.89 450.36 385.89 449.25 385.89 448.15 385.89 447.04 385.89 445.93 385.89 444.83 385.89 443.72 385.89 442.61 385.89 441.5 385.89 440.4 385.89 439.29 385.89 438.18 385.89 437.08 385.89 435.97 385.89 434.86 385.89 433.76 385.89 432.65 385.89 431.54 385.89 430.44 385.89 429.33 385.89 428.22 385.89 427.12 385.89 426.01 385.89 424.9 385.89 423.8 385.89 422.69 385.89 421.58 385.89 420.48 385.89 419.37 385.89 418.26 385.89 417.16 385.89 416.05 385.89 414.94 385.89 413.83 385.89 412.73 385.89 411.62 385.89 410.51 385.89 409.41 385.89 408.3 385.89 407.19 385.89 406.09 385.89 404.98 385.89 403.87 385.89 402.77 385.89 401.66 385.89 400.55 385.89 399.45 385.89 398.34 385.89 397.23 385.89 396.13 385.89 395.02 385.89 393.91 385.89 392.81 385.89 391.7 385.89 390.59 385.89 389.49 385.89 388.38 385.89 387.27 385.89 386.17 385.89 385.06 385.89 383.95 385.89 382.84 385.89 381.74 385.89 380.63 385.89 379.52 385.89 378.42 385.89 377.31 385.89 376.2 385.89 375.1 385.89 373.99 385.89 372.88 385.89 371.78 385.89 370.67 385.89 369.56 385.89 368.46 385.89 367.35 385.89 366.24 385.89 365.14 385.89 364.03 385.89 362.92 385.89 361.82 385.89 360.71 385.89 359.6 385.89 358.5 385.89 357.39 385.89 356.28 385.89 355.17 385.89 354.07 385.89 352.96 385.89 351.85 385.89 350.75 385.89 349.64 385.89 348.53 385.89 347.43 385.89 346.32 385.89 345.21 385.89 344.11 385.89 343 385.89 341.89 385.89 340.79 385.89 339.68 385.89 338.57 385.89 337.47 385.89 336.36 385.89 335.25 385.89 334.15 385.89 333.04 385.89 331.93 385.89 330.83 385.89 329.72 385.89 328.61 385.89 327.5 385.89 326.4 385.89 325.29 385.89 324.18 385.89 323.08 385.89 321.97 385.89 320.86 385.89 319.76 385.89 318.65 385.89 317.54 385.89 316.44 385.89 315.33 385.89 314.22 385.89 313.12 385.89 312.01 385.89 310.9 385.89 309.8 385.89 308.69 385.89 307.58 385.89 306.48 385.89 305.37 385.89 304.26 385.89 303.16 385.89 302.05 385.89 300.94 385.89 299.83 385.89 298.73 385.89 297.62 385.89 296.51 385.89 295.41 385.89 294.3 385.89 293.19 385.89 292.09 385.89 290.98 385.89 289.87 385.89 288.77 385.89 287.66 385.89 286.55 385.89 285.45 385.89 284.47 385.89 284.34 385.89 283.23 385.89 282.13 385.89 281.02 385.89 279.91 385.89 278.81 385.89 277.7 385.89 276.59 385.89 275.49 385.89 274.38 385.89 273.27 385.89 272.17 385.89 271.06 385.89 269.95 385.89 268.84 385.89 267.74 385.89 266.63 385.89 265.52 385.89 264.42 385.89 263.31 385.89 262.2 385.89 261.1 385.89 259.99 385.89 258.88 385.89 257.78 385.89 256.67 385.89 255.56 385.89 254.46 385.89 253.35 385.89 252.24 385.89 251.14 385.89 250.03 385.89 248.92 385.89 247.82 385.89 246.71 385.89 245.6 385.89 244.5 385.89 243.39 385.89 242.28 385.89 241.17 385.89 240.07 385.89 238.96 385.89 237.85 385.89 236.75 385.89 235.64 385.89 234.53 385.89 233.43 385.89 232.32 385.89 231.21 385.89 230.11 385.89 229 385.89 227.89 385.89 226.79 385.89 225.68 385.89 224.57 385.89 223.47 385.89 222.36 385.89 221.25 385.89 220.15 385.89 219.04 385.89 217.93 385.89 216.83 385.89 215.72 385.89 214.61 385.89 213.5 385.89 212.4 385.89 211.29 385.89 210.18 385.89 209.08 385.89 207.97 385.89 206.86 385.89 205.76 385.89 204.65 385.89 203.54 385.89 202.44 385.89 201.33 385.89 200.22 385.89 199.12 385.89 198.01 385.89 196.9 385.89 195.8 385.89 194.69 385.89 193.58 385.89 192.48 385.89 191.37 385.89 190.26 385.89 189.16 385.89 188.05 385.89 186.94 385.89 185.83 385.89 184.73 385.89 183.62 385.89 182.51 385.89 181.41 385.89 180.3 385.89 179.19 385.89 178.09 385.89 176.98 385.89 175.87 385.89 174.77 385.89 173.66 385.89 172.55 385.89 171.45 385.89 170.34 385.89 169.23 385.89 168.13 385.89 167.02 385.89 165.91 385.89 164.81 385.89 163.7 385.89 162.59 385.89 161.49 385.89 160.38 385.89 159.27 385.89 158.17 385.89 157.06 385.89 155.95 385.89 154.84 385.89 153.74 385.89 152.63 385.89 151.52 385.89 150.42 385.89 149.31 385.89 148.2 385.89 147.1 385.89 145.99 385.89 144.88 385.89 143.78 385.89 142.67 385.89 141.56 385.89 140.46 385.89 139.35 385.89 138.24 385.89 137.14 385.89 136.03 385.89 134.92 385.89 133.82 385.89 132.71 385.89 131.6 385.89 130.5 385.89 129.39 385.89 128.28 385.89 127.17 385.89 126.07 385.89 124.96 385.89 123.85 385.89 122.75 385.89 121.64 385.89 120.53 385.89 119.43 385.89 118.32 385.89 117.21 385.89 116.11 385.89 115 385.89 113.89 385.89 112.79 385.89 111.68 385.89 110.57 385.89 109.47 385.89 108.36 385.89 107.25 385.89 106.15 385.89 105.04 385.89 103.93 385.89 102.83 385.89 101.72 385.89 100.61 385.89 99.5 385.89 98.4 385.89 97.29 385.89 96.18 385.89 95.08 385.89 93.97 385.89 92.86 385.89 91.76 385.89 90.65 385.89 89.54 385.89 88.44 385.89 87.33 385.89 86.22 385.89 85.12 385.89 84.01 385.89 82.9 385.89 81.8 385.89 80.69 385.89 79.58 385.89 78.48 385.89 77.37 385.89 76.26 385.89 75.16 385.89 74.05 385.89 72.94 385.89 71.83 385.89 70.73 385.89 69.62 385.89 68.51 385.89 67.41 385.89 66.3 385.89 65.19 385.89 64.09 385.89 62.98 385.89 61.87 385.89 60.77 385.89 59.66 385.89 58.55 385.89 57.45 385.89 56.34 385.89 55.23 385.89 54.13 385.89 53.02 385.89 51.91 385.89 50.81 385.89 49.7 385.89 48.59 385.89 47.49 385.89 46.38 385.89 45.27 385.89 44.17 385.89 43.06 385.89 41.95 385.89 40.84 385.89 39.74 385.89 38.63 385.89 37.52 385.89 36.42 385.89 35.31 385.89 34.2 385.89 33.1 385.89 31.99 385.89 30.88 385.89 29.78 385.89 28.67 385.89 27.56 385.89 26.46 385.89 25.35 385.89 24.24 385.89 23.14 385.89 22.03 385.89 20.92 385.89 19.82 385.89 18.71 385.89 17.6 385.89 16.5 385.89 15.39 385.89 14.28 385.89 13.17 385.89 12.07 385.89 10.96 385.89 9.85 385.89 8.75 385.89 7.64 385.89 6.53 385.89 5.43 385.89 4.32 385.89 3.21 385.89 2.11 385.89 1 385.89 1 384.78 1 383.68 1 382.57 1 381.47 1 380.36 1 379.26 1 378.15 1 377.05 1 375.94 1 374.84 1 373.73 1 373.37 27.04 374.03 61.86 369.37 53.2 366.27 72.76 365.76 72.05 363.25 56.48 361.58 48.35 358.99 53.48 357.22 67.56 358.88 77.27 356.89 75.9 354.67 96.59 352.72 99.99 351.66 111.89 352.45 145.44 351.47 164.04 353.34 179.83 352.56 174.81 350.42 178.85 349.01 202.09 348.44 218.09 350.17 219.76 348.81 235.73 349.79 250.35 347.84 252.04 346.19 248.46 340.85 252.02 339.5 250.29 335.21 258.67 333.16 255.17 338.37 259.88 338.98 261.72 342.47 264.93 344.18 263.97 347.02 266.79 348.87 259.99 353.55 244.1 356.36 230.43 356.02 232.58 358.27 227.65 360.92 234.11 365.76 255.53 367.07 268.17 371.39 282.02 368.43 297.41 367.96 314.09 365.65 334.03 364.11 332.01 362.81 319.64 361.18 325.25 357.76 342.48 354.71 357.35 353.85 363.2 349.61 374.83 346.87 375.46 344.99 382.59 343.39 388.49 344.51 400 344.88 Z M 274.39 267.82 272.33 270.96 269.08 272.16 262.51 272.7 261.82 276.99 258.62 277.62 256.04 276.63 255.76 279.46 257 281.56 255.44 284.73 250.75 287.5 250.1 288.72 254.04 292.67 250.25 295.04 247.32 297.96 246.53 302.11 243.03 303.48 237.01 302.67 235.4 299.3 235.38 290.09 238.79 285.6 237.57 284.17 238.71 281.73 238.49 279.28 236.08 277.21 237.65 273.92 236.69 269.21 239.89 264.23 241.7 258.14 241.04 254.25 241.46 250.54 242.81 247.62 243.85 242.57 243.59 237.5 244.7 233.9 244.16 227.28 241.48 224.7 233.39 220.51 230.91 217.73 231.04 216 228.93 213.15 224.91 204.6 222.74 201.43 220.23 199.85 219.89 195.78 222.77 193.48 220.78 189.97 222.52 186.27 222.5 184.58 224.98 183.81 226.14 180.65 227.65 180.57 228.37 177.51 228.56 171.88 226.78 169.77 226.43 167.65 223.81 166.44 221.62 168.17 220.73 170.4 218.87 168.37 216.09 168.17 211.88 164.61 210.17 164.43 209.76 161.58 205.09 157.22 203.19 157.03 195.52 154.14 191.35 150.43 189.74 149.97 185.97 151.68 176.1 148.14 170.58 145.75 167.21 143.46 165.7 141.15 166.84 138.86 165.48 136.21 159.6 130.38 157.41 129.21 157.82 127.65 154.94 125.69 151.4 122.19 149.23 118.09 145.41 116.5 145.84 119.48 149.73 123.27 150.02 124.62 152.71 127.21 155.49 134.21 151.54 131.47 150.97 128.36 146.22 126.01 147.21 123.31 143.54 120.43 139.52 112.5 137.23 110.94 132.95 110.02 132.57 108.5 129.8 105.89 124.33 97.14 125 94.54 123.92 91.41 124.8 89.12 125.36 83.44 123.5 79.61 127.81 79.81 127.83 77.73 123.51 75.66 122.05 74.45 120.16 74.44 116.76 72.97 116.71 70.55 109.76 64.86 109.86 62.89 104.32 59.3 101.86 57.04 97.21 57.33 88.95 54.05 80.98 53.4 77.05 51.93 71.25 51.4 71.04 53.41 63.64 55.24 61.43 53.59 58.27 57.34 53.45 59.12 49.06 61.87 44.27 63.38 41.29 62.52 47.67 60.39 50.41 58.78 41.53 54.49 37.32 53.83 31.59 49.85 35.18 46.43 38.48 46.61 43.58 45.08 39.55 43.4 31.61 43.23 27.42 40.99 39.93 37.89 30.82 34.86 35.7 33.6 40.87 30.61 52.39 28.33 63.11 30.23 68.95 30.09 78.71 31.27 82.49 30.96 95.89 33.55 103.78 32.55 111.11 30.91 118.18 30.66 122.85 31.78 130.83 31.74 138.34 33.38 145.11 33.73 143.9 35.8 150.8 36.36 164.6 33.56 168.39 35.58 186.17 36.65 189.72 35.59 190.92 32.43 185.83 29.39 193.87 28.21 200.5 34.81 208.25 37.03 211.1 33.14 216.96 31.94 219.28 37.88 214.49 39.65 209.68 39.73 204.84 44.11 198.34 45.46 199.07 46.59 192.74 49.28 190.06 52.8 189.84 55.57 193.43 56.14 195.57 59.99 198.21 59.45 202.89 60.36 205.77 62.04 211.3 63.8 217.22 64.16 217.57 68.98 219.58 70.84 223.33 72.48 225.94 70.06 223.38 65.15 230.07 62.09 230.23 59.44 226.05 56.23 228.69 53.33 226.73 51.46 228.23 47.65 236.7 47.89 244.59 51.04 246.05 55.84 250.04 57.26 257.81 54.09 262.81 58.65 262.94 61.42 269.2 64.13 273.31 67.27 275.79 67.62 276.57 70.87 269.33 73.25 266.86 74.99 252.5 75.08 248.81 78.57 254.66 77.18 257.64 78.01 256.3 80.4 256.99 83.89 264.63 86.14 258.76 87.84 254.89 89.9 253.23 88.62 255.22 85.62 247.08 87.92 243.03 91.36 243.65 93.7 241.51 94.69 236.78 95.49 233.41 101.62 231.04 101.39 230.69 103.77 232.15 106.97 227.3 111.12 220.7 115.3 219.34 118.33 222.58 126.96 221.72 130.48 220.26 130.7 216.37 124.7 216.8 122.33 214.51 120.06 210.9 120.57 206.8 118.84 202.88 118.91 200.32 121.72 193.41 120.39 189.66 121.27 184.93 124.23 183.76 126.52 184.62 129.37 183.54 132.05 183.01 136.24 184.65 140.62 187.53 144.9 191.17 146.07 197.33 144.54 198.88 143.44 199.7 139.84 205.02 138.51 207.72 139.48 206.17 141.63 205.44 145.59 203.75 150.31 207.42 151.45 213.15 151.34 215.62 153.17 214.09 161.17 214.98 163.13 217.69 166.41 220.84 166.68 223.66 165.04 230.04 167.15 232.29 164.88 234.09 161.76 240.49 160.69 241.6 162.06 247.35 161 249.4 163.19 252.5 162.82 256.48 163.99 257.82 163.16 260.72 163.32 265.26 165.69 268.85 168.53 273.5 173.2 278.59 173.12 282.53 174.29 286.77 177.78 286.74 178.9 289.21 184.01 286.5 186.5 288.34 190.76 292.85 189.31 294.52 187.67 296.67 188.19 303.99 191.59 308.36 192.86 311.37 192.7 317.58 197.27 321.28 197.79 322.87 202.26 322.09 206.14 318.2 210.27 315.06 215.06 313.41 216.09 313.85 221.51 311.98 229.43 306.77 237.27 301.5 237.37 295.89 240.25 292.64 243.19 291.79 249.81 289.59 251.65 288.47 253.91 286.68 253.46 284.9 255.79 283.36 259.76 280.82 262.62 278.22 263.91 272.49 264 274.39 267.82 Z M 498.1 231.56 498.55 229.43 497.41 225.08 499.43 222.36 502.7 221.04 508.06 216.12 508.58 213.73 510.53 214.94 511.95 220.34 509.57 224.7 509.41 227.23 506.18 236.22 504.49 241.6 500.84 243.08 498.35 242.37 496.77 240 495.81 235.72 498.1 231.56 Z M 697.47 258.42 693.12 257.4 690.78 256.16 685.93 256.64 682.16 257.93 679.71 257.84 675.13 259.81 673.91 261.5 666 261.59 661.83 263.94 658.16 263.97 654.96 262.34 656.39 260.18 656.42 256.54 654.87 251.74 651.79 245.52 653.04 243.56 651.34 240.14 652.73 234.85 655.92 234.08 658.78 232.09 666.53 230.52 668.65 229.55 670.92 226.73 671.05 224.27 675.71 222.33 675.76 220.88 678.54 218.22 681.41 216.81 684.12 218.97 686.74 218.33 688.45 215.07 690.38 213.37 692.7 213.67 695.13 212.27 699.41 213.57 703 213.62 701.21 215.93 700.12 219.06 703.17 221.64 708.2 223.89 710.33 225.64 712.18 225.07 714.03 219.66 713.6 216.93 715.15 210.62 717.95 214.35 719.09 218.53 722.03 219.52 722.3 222.84 723.79 224.94 724.62 228.64 729.32 230.86 731.63 235.7 734.33 236.7 734.4 238.52 737.83 241.25 739.42 243.88 739.4 246.78 740.49 250.38 738.09 258.27 736.2 259.67 732.86 266.09 732.47 269.5 728.75 270.23 723.45 272.61 721.38 270.4 718.17 272.52 713.51 271.45 709.76 268.81 709.17 265.96 707.08 265.4 707.09 263.4 702.29 261.92 700.89 263.66 697.47 258.42 Z M 521.9 131.05 521.96 131.02 524.94 130.85 526.69 133.29 530.31 134.27 532.54 137.18 529.72 141.13 528.25 141.48 527.92 144.4 525.38 146.16 522.9 146.84 521.98 148.68 516.59 149.87 515.77 151.77 508.79 154.23 503.52 156.62 501.23 156.81 497.96 158.42 495.87 157.1 494.65 151.55 494.73 149.43 492.48 146.69 489.83 142.12 486.63 139.14 486.77 136.76 485.56 134.15 483.03 132.21 482.53 130.54 477.7 124.06 475.54 124.76 475.4 127.4 478.72 133.24 479.12 135.56 481.78 137.48 482.98 144.58 485.53 146.32 488.04 152.55 491.23 153.93 496.23 159.25 495.41 160.24 498.14 163.21 505 161.62 513.32 160.89 512.7 165.43 510.48 168.74 508.7 172.77 506.29 176.51 502.03 180.98 498.75 182.93 493.28 188.3 491.56 190.73 489.05 192.51 485.96 199.76 487.48 201.59 487.07 204.81 488.18 208.4 489.8 209.61 489.87 216.67 490.53 218.45 489.94 220.76 486.65 224.04 482.21 226 479.05 228.8 476.87 231.49 478.68 235.47 477.82 240.91 472.87 243.01 472.79 246.51 471.77 249.68 469.13 251.91 467.37 254.77 461.84 259.63 458.78 261.21 454.49 262.15 450.16 261.75 444.23 263.55 440.95 261.53 439.57 259.16 440.28 256.58 437.26 250.85 433.9 246.95 432.08 239.94 432.16 236.37 429.16 231.06 426.27 226.61 426.02 221.63 427.74 216.19 430.23 213.54 430.49 209.99 428.81 206.55 429.64 204.84 427.22 200.02 426.17 196.53 421.95 192.37 419.51 188.02 421.32 184.6 421.95 179.13 419.67 176.19 413.51 176.91 409.77 172.29 404.18 172.48 395.37 175.89 390.86 174.62 387.03 175.24 383.47 176.76 379.43 174.98 376.96 172.7 372.28 170.01 370.47 165.67 362.76 158.83 363.26 156.15 361.92 153.91 363.34 151.42 364.48 146.58 363.48 143.67 364.09 141.58 362.47 139.5 365.38 133.13 366.95 131.67 368.06 128.18 369.81 127.23 371.25 124.51 374.54 123.6 378.6 119.61 378.17 116.78 379.47 114.18 384.88 110.93 386.86 107.07 389.43 108.27 395.45 108.64 402.32 105.51 408.48 104.57 411.76 105.16 421.43 103.63 423.94 105.59 424.63 108.35 422.45 110.3 422.9 111.68 427.37 113.61 429.6 113.45 433.68 114.59 435.57 117.06 438.49 117.48 442.24 119.3 443.78 118.76 444.16 116.08 445.58 114.22 447.9 113.39 451.17 114.02 453.4 115.44 460.56 116.83 464.35 118.06 467.3 116.54 471.06 117.5 475.47 117.16 479.76 109.83 479.33 105.88 477.08 104.78 472.42 106.49 468.02 104.61 467.48 106.06 460.43 104.45 459.88 100.22 457.97 98.92 459.26 96.83 463.48 96.91 464.8 94.97 469.27 95.27 473.87 93.25 477.81 93.24 483.14 95.41 488.98 95.68 492.6 93.68 491.99 91.87 486.4 88.53 483.08 87.35 482.37 85.92 484.9 83.94 483.3 82.01 477.17 84.05 478.8 86.37 475.27 88.01 472.1 85.62 470.62 83.03 468.7 83.09 463.82 87.29 463.31 90.07 460.98 92.06 462.92 94.51 460.24 96.32 454.12 95.63 450.03 97.6 451.44 100.64 451.2 104.8 448.12 104.78 446.89 101.48 442.8 96.29 443.41 93.69 437.42 90.17 435.68 90.01 427.68 85.63 427.42 88.3 430.18 89.89 431.2 91.96 437.79 96.57 434.6 97.56 430.42 94.95 428.92 95 423.27 91.2 422.4 88.82 419.42 87.9 413.36 90.9 408.73 89.89 406.74 91.2 406.98 93.63 402.2 95.42 399.28 98.79 400.52 100.48 395.41 104.87 390.17 105.01 387.56 106.57 384.42 103.92 380.88 104.1 380.26 101.02 378.96 100.59 380.81 95.52 379.57 90.73 382.14 89.5 389.5 90.15 396.32 90.19 397.68 84.34 394.45 81.04 390.17 80.04 389.88 78.59 399.51 77.15 403.37 75.08 403.5 73.63 409.13 71.94 410.52 68.98 419.64 67.06 419.07 61.14 422.71 62.44 421.05 64.12 424.77 66.65 427.71 65.64 431 67.19 439.65 64.86 443.29 65.77 447.06 64.61 446.69 60.38 449.84 58.39 454.04 59.53 452.03 55.14 456.93 54.21 461.79 54.7 462.55 52.18 451.51 53.61 447.59 52.04 446.8 47.22 452.32 44.46 456.2 41.23 449.57 40.62 445.45 44.92 442.73 45.76 437.9 49.76 438.21 51.84 441.73 53.24 437.89 56.36 435.14 62.06 428.82 63.59 427.43 60.23 422.79 55.38 418.01 57.6 412.14 56.15 411 50.58 413.14 48.51 419.49 45.78 427.93 41.35 431.53 37.91 442.33 31.81 461.11 28.79 465.8 31.29 478.32 32.83 490.92 36.33 489.65 39.19 477.29 40.36 477.48 43.52 487.71 43.31 488.03 41.41 497 37.38 498.08 35.09 501.84 34.67 506.97 36.36 518.45 33.62 527.08 34.4 535.08 33.52 540.56 31.95 548.64 33.92 548.35 28.34 553.56 24.93 562.98 27.18 578.89 25.58 579.18 23.3 590.68 21.77 597.58 19.14 614.64 18.11 630.58 14.08 637.74 15.69 647.28 16.41 651.82 19.51 643.88 22.32 647.83 22.92 662.56 23.27 668.34 24.72 683.71 23.53 684.16 26.28 688.83 29.14 707.58 27.58 713.77 25.07 728.96 26.1 738.29 29.37 745.66 28.79 753.98 29.73 756.72 32.02 763.59 31.72 777.61 33.82 778.19 30.96 791.25 31.77 799 33.48 799 34.42 799 35.52 799 36.63 799 37.73 799 38.84 799 39.94 799 41.05 799 42.15 799 42.16 795.45 43.98 798.13 47.39 791.45 47.88 778.12 52.43 774.99 52.13 762.76 53.27 759.08 57.63 762.05 58.47 758.61 63.12 759.44 64.8 754.78 66.3 754.49 68.28 747.4 73.59 744.81 63.84 747.86 58.58 752.5 56.9 758.96 52.47 753.25 49.19 747.31 50.01 739.97 55.07 731.61 53.92 728.94 54.76 717.34 54.82 704.95 62 699.74 64.71 703.42 65.38 707.01 67.7 709.93 66.21 713.51 68.58 713.5 71.25 711.9 72.6 710.7 78.99 706.12 83.92 699.56 89.95 695.17 91.76 693.39 90.44 688.33 93.12 687.62 95.71 682.36 99.12 684.36 100.48 686.68 103.75 686.96 107.67 682.22 110.04 679.9 109.6 680.93 106.84 680.48 102.7 677.11 102.36 678.04 99.27 674.03 98.01 669.71 99.74 671.1 96.61 669.02 95.64 664.97 97.96 663.43 101.82 664.76 104.11 667.64 102.52 670.52 104.41 667.66 105.57 664.24 108.7 666.57 110.33 668.02 114.06 670.04 115.56 670.08 121.75 667.85 124.42 665.02 129.72 662.83 131.93 658.23 135.54 654.29 135.87 644.18 139.87 641.92 138.5 639.14 138.66 636.64 139.98 634.19 144.51 636.66 147.96 641.36 152.39 642.65 157.76 641.66 161.22 637.91 163.24 636.24 165 632.25 166.84 632.51 164.55 631.17 163.02 628.53 162.15 627.76 159.7 625.72 158.3 623.52 158.22 621.71 159.36 619.79 163.43 621.34 165.79 622.54 170.4 625.59 171.98 629.31 175.76 629.28 179.82 631.19 183.18 629.13 182.98 624.51 179.94 623.26 177.81 622.44 173.06 620.1 169.5 617.73 167.03 618.81 162.17 618.77 158.21 616.78 153.4 616.23 149.73 614.17 149.77 611.46 151.55 608.84 150.57 609.64 148.02 608.34 143.42 605.64 141.61 604.05 139.5 602.73 135.88 599.91 138.06 593.3 138.62 591.23 142.25 588.13 143.78 586.37 145.89 577.92 151.64 577.45 153.11 578.07 157.13 575.02 165.83 571.82 168.49 569.67 166.63 565.4 155.72 562.81 150.77 561.04 142.41 560.94 139.25 557.34 140.48 555.29 139.5 552.94 137.17 553.48 135.76 549.92 133.62 547.27 129.65 543.34 130.46 537.17 130.74 527.07 129.25 526.29 126.61 524.92 126.09 521.48 127.65 519.07 127.18 513.89 124.34 511.15 120.03 506.28 119.9 507.74 124.04 511.31 128.28 514.33 129.02 514.84 133.19 518.77 133.08 521.9 131.05 Z M 521.36 95.52 519.47 93.11 516.16 93.08 511.5 87.4 516.52 85.75 517.9 82.83 513.46 81.95 505.53 85.22 503.52 87.87 505.21 91.03 509.92 96.34 508.65 102.73 515.07 105.3 518.57 104.62 519.65 100.16 516.9 96.65 521.36 95.52 Z M 643.63 203.76 636.13 202.82 634.58 200.65 636.06 199.77 639.88 200.22 640.74 201.38 644.62 201.85 645.45 200.7 649.56 201.88 653.14 205.55 644.89 204.37 643.63 203.76 Z M 708.54 201.85 705.25 197.96 699.66 196.25 693.32 192.92 694.89 191.88 690.84 189.77 690.92 188.21 694.17 187.19 696.98 187.99 697.46 191.66 700.29 193.84 702.36 191.31 705.44 189.68 710.03 191.65 713.16 192.25 720.34 194.85 723.22 197.16 723.03 198.41 726.85 199.6 726.21 202.77 728.32 204.24 731.3 209.34 727.54 208.69 723.86 204.34 720.16 203.26 716.21 207.07 712.8 206.82 710.18 204.36 707.76 204.43 708.54 201.85 Z M 292.57 187.67 291.74 189.59 288.27 190.45 287.44 187.85 288.35 186.62 292.57 187.67 Z M 665.66 188.33 665.54 185.95 668.14 183.4 672.6 185.32 666.83 185.33 666.2 187.85 669.75 190.62 671.93 195.53 670.67 196.41 666.99 194.65 666.72 198.6 664.57 198.26 665.17 195.95 663.25 192.54 665.66 188.33 Z M 623.77 182.34 629.89 185.7 629.15 188 631.37 188.68 632.49 191.45 634.13 191.71 635.11 193.63 634.48 199.31 631.19 198.9 626.79 195.24 624.12 192.12 622.33 188.2 619.65 185.01 618.42 182.1 611.53 175.69 613.08 174.68 616.12 174.75 617.91 177.34 621.11 179.34 623.77 182.34 Z M 664.4 174.54 661.87 175.57 659.84 178.3 661.71 181.14 660.67 187.33 657.85 190.17 658.47 191.32 657.06 194.39 654.05 194.55 650.89 193.21 649.64 193.98 646.71 192.9 644.42 193.05 643.99 189.56 642.22 188.28 641.3 184.54 641.83 182.93 645.98 183.06 647.03 180.45 650.43 179.42 652.58 176.92 656.8 174.06 659.29 171.52 660.8 173.18 664.4 174.54 Z M 680.56 170.2 677.48 173.54 674.79 171.27 675.38 168.18 676.6 166.55 679.99 166.54 680.56 170.2 Z M 671.09 145.59 671.61 148.5 669.06 152.46 669.82 155.42 668.83 156.25 666.2 153.59 667.35 145.3 671.09 145.59 Z M 691.85 114.4 691.15 116.8 688.66 117.13 689.59 114.11 687.84 112.06 692 111.95 691.85 114.4 Z M 695.75 110.04 692.73 111.25 690.08 110.77 694.01 107.83 701.43 107.38 703.15 104.66 706.44 103.96 709.08 101.78 710.93 95.92 713.16 94.72 714.92 98.74 712.4 102.4 711.58 105.96 710.04 108.78 705.44 109.6 702.62 109.51 700.95 112.17 698.68 109.32 695.75 110.04 Z M 723.12 90.21 718.4 91.82 717.54 93.42 714.16 91.92 713.53 90.27 714.68 85.51 718.72 88.63 723.12 90.21 Z M 283.34 81.04 280.27 80.42 277.53 82.39 274.14 81.02 268.33 80.25 269.87 78.76 274.27 72.63 277.59 77.19 280.21 76.71 281.1 79.61 283.34 81.04 Z M 715.94 66.03 717.25 70.37 719.83 77.22 717.37 77.23 715.98 79.94 717.37 82.85 714.37 83.09 715.36 73.17 714.05 71.32 715.94 66.03 Z M 386.47 67.81 385.88 70.72 381.07 71.9 377.31 71.45 383.75 63.65 387.73 65.23 386.47 67.81 Z M 392.63 61.44 396.38 63.18 400.73 68.71 403.93 70.05 400.6 73.9 393.65 73.93 388.28 71.31 390.7 70.5 390.8 68.4 393.31 66.84 388.54 64.45 387.59 59.42 388.94 56.43 392.26 58.46 396.1 58.99 392.63 61.44 Z M 367.72 39.24 370.02 42.18 367.84 43.54 358.48 45.86 355.26 45.53 346.36 41.19 352.74 40.12 361.39 40.1 367.72 39.24 Z M 1 33.48 15.3 37.67 23.83 39.8 18.37 41.37 16.28 43.99 7.7 40.96 2.6 40.91 1 42.16 1 42.15 1 41.05 1 39.94 1 38.84 1 37.73 1 36.63 1 35.52 1 34.42 1 33.48 Z M 176.4 31.65 170.83 33.92 165.29 33.05 150.44 34.53 142.92 32.77 139.67 31.25 136.1 27.62 137.12 25.84 146 23.72 154.55 25.52 163.21 23.89 166.51 25.12 168.16 28.84 176.4 31.65 Z M 513.96 27.22 517.83 24.24 525.1 24.06 522.68 26.64 513.96 27.22 Z M 238.3 38.46 238.21 35.27 232.23 32.8 220.29 31 209.85 31.23 201.72 29.21 200.27 26.97 202.6 24.01 219.28 22.98 221.43 25.4 233.31 25.69 251.23 31.82 248.97 33.8 258.38 37.34 264.18 38.75 259.25 41.48 252.26 42.37 257.06 46.1 253.09 49.27 241.79 46.63 237.18 43.21 227.64 43.76 230.03 41.39 234.85 41.54 238.3 38.46 Z M 144.37 23.44 127.13 28.82 121.25 26.46 130.5 21.12 144.37 23.44 Z M 526.32 20.82 523.71 19.79 536.63 17.23 537.54 19.14 525.42 23.99 519.41 22.85 526.32 20.82 Z M 310.17 3.35 307.47 1.97 327.98 1 352.74 3.28 353.39 5.13 374.2 5.98 352.05 13.49 359.38 15.24 356.94 19.64 350.72 22.13 343.94 23.52 346.04 26.05 351.97 28.12 339.03 29.13 347.46 31.85 341.44 34.19 328.79 35.54 323.21 39.25 320.04 40.23 311.61 41.18 309.97 44.95 307.45 47.08 305.07 52.03 300.41 52.66 297.2 50.98 293.75 51.52 285.75 45.22 284.13 41.32 281.51 40.18 280.99 36.07 285.69 34.49 287.29 32.05 280.26 30.31 276.94 28.01 278.86 24.92 271.06 19.03 259.29 17.09 252.62 18.04 239.09 12.33 253.44 11.04 250.47 8.3 286.71 3.49 298.02 4.54 310.17 3.35 Z M 248.48 145.03 242.48 146.17 241.69 147.36 238.6 144.15 239.67 142.61 242.61 142.19 248.48 145.03 Z M 186.49 25.75 180.03 28.23 176.92 26.38 176.37 22.73 183.72 22.59 186.49 25.75 Z M 166.37 18.64 165.01 20.01 147.98 21.37 139.15 19.49 143.95 16.91 166.37 18.64 Z M 223.64 20.16 218.7 21.34 205.72 21.34 196.91 20.78 193.57 17.1 204.39 19.08 220.2 18.41 223.64 20.16 Z M 185.82 8.96 188.9 6.8 205.6 8.14 211.76 10.62 203.23 13.08 193.95 12.52 185.82 8.96 Z M 264.59 3.89 242.3 9.52 234.93 10.77 232.46 13.24 223.92 15.18 226.79 16.75 211.03 17.22 206.1 15.46 206.08 12.49 213.07 10.85 208.4 8.35 196.71 5.21 216.66 3.78 224.13 2.46 245.98 2.3 264.59 3.89 Z M 728.06 282.22 723.7 282.78 722 280.81 720.73 276.62 724.57 277.64 728.66 277.61 728.06 282.22 Z M 722.23 18.94 719.93 20.04 708.88 20.83 704.01 19.84 706.21 17.66 722.23 18.94 Z M 444.8 12.07 436.21 16.56 423.74 10.03 436.83 9.09 444.8 12.07 Z M 283.58 364.17 291.22 359.38 302.87 359.84 303.51 364.17 283.58 364.17 Z M 255.57 307.51 252.5 308.42 244.67 306.64 243.78 304.56 247.61 302.89 249.3 305.21 252.63 307.12 255.57 307.51 Z M 235.61 141.45 232.9 142.32 226.95 140.48 224.33 138.62 218.62 137.2 218.16 134.96 222.61 135.52 224.13 136.71 228.19 137.93 232.01 140.4 235.61 141.45 Z M 782.93 282.33 779.82 284.54 778.38 287.64 774.7 289.87 769.05 287.93 773.15 284.18 779.32 280.8 782.79 276.68 786.14 279.21 782.93 282.33 Z M 792.25 274.19 791.99 275.45 788.44 275.8 785.22 273.71 786.98 272.48 787.52 268.01 790.13 269.81 795.22 271.82 792.25 274.19 Z" fill-rule="evenodd" fill="#0f3656" stroke="#1f5f86" stroke-width="0.4"/>
<path d="M 584.66 29.44 585.02 29.59 584.66 29.79 584.31 29.78 584.66 29.44 Z" fill="#0f3656" stroke="#1f5f86" stroke-width="0.4"/>
<path d="M 426.92 12.96 425.06 12.49 423.33 11.74 424.79 11.86 424.98 12.22 426.35 12.61 426.92 12.96 Z" fill="#0f3656" stroke="#1f5f86" stroke-width="0.4"/>
<path d="M 419.56 60.61 418.96 60.55 419.17 60.28 419.59 60.33 419.56 60.61 Z" fill="#0f3656" stroke="#1f5f86" stroke-width="0.4"/>
<path d="M 25.32 370.71 23.47 370.7 21.19 370.23 25.32 370.71 Z" fill="#0f3656" stroke="#1f5f86" stroke-width="0.4"/>
<path d="M 636.67 192.06 634.94 192.64 633.77 189.85 634.69 189.69 635.75 191.85 636.67 192.06 Z" fill="#0f3656" stroke="#1f5f86" stroke-width="0.4"/>
<path d="M 581.49 170.67 580.35 172.59 577.56 172.81 576.81 168.68 577.94 165.32 580.36 167.59 581.49 170.67 Z M 646.07 142.76 644.78 144.98 642.59 145.85 640.8 143.64 642.29 142.23 645.25 141.82 646.07 142.76 Z M 670.22 131.08 669.1 135.08 666.73 136.47 666.42 133.69 668.35 130.86 670.22 131.08 Z M 126.64 78.89 123.66 78.72 119.43 76.85 115.56 74.2 121.95 74.86 123.37 76.72 126.64 78.89 Z M 434.42 101.48 432.11 104.83 427.55 102.61 434.42 101.48 Z M 421.71 96.49 421.19 99.63 418.56 99.43 418.03 96.11 421.71 96.49 Z M 682.99 186.85 682.42 183.66 683.4 182.34 685.29 184.02 682.99 186.85 Z M 241.6 347.38 239.65 345.13 242.62 342.59 240.37 339.24 243.94 338.87 248.6 343.48 248.35 346.48 241.6 347.38 Z M 770.26 235.68 769.03 235.79 764.34 232.4 764.63 231.39 770.26 235.68 Z" fill-rule="evenodd" fill="#0f3656" stroke="#1f5f86" stroke-width="0.4"/>
<path d="M 520.18 6.09 520.65 6.16 520.7 6.25 520.31 6.14 520.18 6.09 Z" fill="#0f3656" stroke="#1f5f86" stroke-width="0.4"/>
<path d="M 188.94 33.74 179.63 33.68 182.93 31.45 188.94 33.74 Z M 252.07 360.27 244.08 363.05 243.52 361.25 252.07 360.27 Z" fill-rule="evenodd" fill="#0f3656" stroke="#1f5f86" stroke-width="0.4"/>
<path d="M 222.26 45.04 217.05 44.58 212.49 46.04 208.47 43.55 209.3 40.83 222.26 45.04 Z M 199.85 22.53 196.38 24.91 188.1 25.24 188.87 22.33 199.85 22.53 Z" fill-rule="evenodd" fill="#0f3656" stroke="#1f5f86" stroke-width="0.4"/>
<path d="M 399.99 186.4 399.99 186.38 400.01 186.38 400.01 186.4 399.99 186.4 Z" fill="#0f3656" stroke="#1f5f86" stroke-width="0.4"/>
</g>
</svg>